# xmcd CD database file
#
# Track frame offsets:
#	150
#	21741
#	40411
#	79438
#	95881
#	114147
#	134069
#	158456
#	178980
#	205465
#
# Disc length: 3090 seconds
#
# Revision: 1
# Processed by: cddbd v1.5.2PL0 Copyright (c) Steve Scherf et al.
# Submitted via: CDex 1.51
#
DISCID=940c100a
DTITLE=Laco Deczi and Celula New York - Horse Power
DYEAR=2002
DGENRE=Jazz
TTITLE0=Island Gadula
TTITLE1=Horse Power
TTITLE2=Generation
TTITLE3=Bycikle
TTITLE4=Adamek
TTITLE5=Curil
TTITLE6=To My Mother
TTITLE7=Czech Soup
TTITLE8=Soup Made From The Missonary
TTITLE9=Dracula
EXTD=YEAR: 2002
EXTT0=
EXTT1=
EXTT2=
EXTT3=
EXTT4=
EXTT5=
EXTT6=
EXTT7=
EXTT8=
EXTT9=
PLAYORDER=
